<svg width="512" height="512" viewBox="0 0 288 358" fill="white" xmlns="http://www.w3.org/2000/svg">
    <rect x="90" y="310" width="198" height="30" rx="15" />
    <rect x="90" y="250" width="198" height="30" rx="15" />
    <rect x="90" y="190" width="198" height="30" rx="15" />
    <path d="M0 130H124C151.614 130 174 107.614 174 80V80C174 52.3858 151.614 30 124 30H15C6.71573 30 0 23.2843 0 15V15C0 6.71573 6.71573 0 15 0H129C170.421 0 204 33.5786 204 75V85C204 126.421 170.421 160 129 160H30V343C30 351.284 23.2843 358 15 358V358C6.71573 358 0 351.284 0 343V130Z" />
</svg>
